<svg width="19" height="20" viewBox="0 0 19 20" fill="none" xmlns="http://www.w3.org/2000/svg">
<path d="M1.22031 5.74187C1.82551 3.59757 2.79851 2.71729 4.72031 1.24187C6.47767 0.984531 7.46294 0.860165 9.22031 1.24187C12.2076 1.99438 13.3488 3.03492 14.2203 6.24187C14.5554 7.80397 14.5135 8.67978 14.2203 10.2419C13.5955 11.7501 12.9632 12.5882 12.0487 13.2419C11.5416 13.6043 10.9477 13.91 10.2203 14.2419C8.65834 14.5451 7.78228 14.5532 6.22031 14.2419C3.22627 12.8946 2.19019 11.7657 1.22031 9.24187C0.915031 7.87507 0.938332 7.1087 1.22031 5.74187Z" stroke="white" stroke-width="2"/>
<rect x="13.2161" y="11.7419" width="7.61678" height="3" transform="rotate(41.7028 13.2161 11.7419)" fill="white"/>
</svg>
